<?xml version="1.0" encoding="UTF-8"?>
<svg version="1.1" xmlns="http://www.w3.org/2000/svg" width="512" height="512">
<path d="M0 0 C168.96 0 337.92 0 512 0 C512 168.96 512 337.92 512 512 C343.04 512 174.08 512 0 512 C0 343.04 0 174.08 0 0 Z " fill="#1354A8" transform="translate(0,0)"/>
<path d="M0 0 C-3.08154328 3.16335416 -6.19566223 6.04887591 -9.6875 8.75 C-14.12189268 12.25152785 -18.34281153 15.92206171 -22.51171875 19.734375 C-24.12248184 21.20100388 -25.74928985 22.65028091 -27.39453125 24.078125 C-57.84964368 50.64639756 -81.00804622 86.90124547 -90.3125 126.25 C-90.56749268 127.32725342 -90.82248535 128.40450684 -91.08520508 129.5144043 C-96.16351787 152.14417002 -97.18496807 181.41069611 -91 204 C-90.80132324 204.72848145 -90.60264648 205.45696289 -90.39794922 206.20751953 C-87.21246596 217.4294879 -82.65004321 227.8122391 -77 238 C-76.45730469 238.98484375 -75.91460937 239.9696875 -75.35546875 240.984375 C-70.97807985 248.35457723 -65.36508812 254.40467612 -59.42529297 260.5234375 C-58.18294636 261.81047284 -56.96609008 263.12201703 -55.75390625 264.4375 C-29.21457205 292.53206929 12.29675164 306.07120497 49 314 C46.03215965 316.96784035 42.57243514 316.72349762 38.56640625 317.1015625 C37.71768448 317.18524078 36.86896271 317.26891907 35.99452209 317.35513306 C26.97703257 318.18485461 17.98859039 318.39533014 8.9375 318.375 C7.67847366 318.37518127 7.67847366 318.37518127 6.39401245 318.37536621 C-8.38124914 318.34530357 -22.51534858 317.08796053 -37 314 C-37.77762695 313.83983398 -38.55525391 313.67966797 -39.35644531 313.51464844 C-58.85159272 309.40627509 -78.36880228 302.25681149 -94.28515625 290.07421875 C-98.40613403 286.92567314 -102.6861021 284.01537886 -106.96875 281.09375 C-108.72433308 279.88113076 -110.46414637 278.64348177 -112.15625 277.34375 C-124.50567535 268.13068665 -141.95988913 263.59682941 -157.1875 263.625 C-158.10297607 263.62661133 -159.01845215 263.62822266 -159.96166992 263.62988281 C-169.61200389 263.80273979 -178.06387289 265.84502531 -186.6875 270.3125 C-188.3271875 271.1478125 -188.3271875 271.1478125 -190 272 C-193.56691552 270.81102816 -193.72287752 270.20961956 -195.42578125 267.01171875 C-195.8854126 266.16996094 -196.34504395 265.32820313 -196.81860352 264.4609375 C-197.55808228 263.08808594 -197.55808228 263.08808594 -198.3125 261.6875 C-208.35118544 243.61507725 -220.21790793 226.53281565 -235 212 C-235.66 211.34 -236.32 210.68 -237 210 C-235.84688887 217.16705857 -233.86614048 223.49370336 -230.9375 230.125 C-230.54046875 231.0337085 -230.1434375 231.94241699 -229.734375 232.87866211 C-221.67791879 250.97550863 -210.78303981 265.94857108 -198 281 C-199 283 -200 285 -201 287 C-201.66 287 -202.32 287 -203 287 C-203.21398437 287.55429687 -203.42796875 288.10859375 -203.6484375 288.6796875 C-205.45399102 291.77939499 -207.90507437 293.8543478 -210.625 296.125 C-211.19476563 296.60146973 -211.76453125 297.07793945 -212.3515625 297.56884766 C-222.88191193 306.15596181 -234.06552405 312.73511874 -247 317 C-247.80953125 317.29390625 -248.6190625 317.5878125 -249.453125 317.890625 C-270.01122229 325.22253382 -290.59793135 323.3137922 -310.16162109 314.29589844 C-332.66147079 303.3740625 -349.63339981 285.61079601 -364.54882812 265.90576172 C-367.31737861 262.26994324 -370.1297462 258.66807094 -372.9375 255.0625 C-373.53199951 254.29824707 -374.12649902 253.53399414 -374.73901367 252.74658203 C-377.52746294 249.164424 -380.32131355 245.58670932 -383.12890625 242.01953125 C-383.61190186 241.40577637 -384.09489746 240.79202148 -384.5925293 240.15966797 C-385.51773689 238.98650796 -386.44492733 237.8149085 -387.37426758 236.64501953 C-389.74762396 233.64714241 -391.97244204 230.59576127 -394.125 227.4375 C-397.88473942 222.45664863 -402.55252468 219.60691485 -408.70703125 218.5234375 C-414.91416645 218.1935478 -419.03829097 219.53125632 -424.22265625 222.90625 C-426 224 -426 224 -428 224 C-428.53557252 213.56625389 -427.36311371 204.96352938 -420.60546875 196.6875 C-415.14560676 190.94866696 -409.10599402 188.91902716 -401.375 188.6875 C-382.30567372 189.19974075 -365.04581611 199.96654128 -350.21240234 211.29077148 C-344.85086731 215.16313406 -340.54915336 215.90311236 -334 215 C-325.52348976 212.56692762 -320.52176123 207.39329254 -316.2578125 199.96484375 C-307.01144064 182.36499001 -302.57653626 162.58150436 -297.53515625 143.4609375 C-291.24622012 119.96843674 -281.16716039 97.16167986 -266 78 C-265.33871094 77.13632813 -264.67742187 76.27265625 -263.99609375 75.3828125 C-239.67242946 44.47428882 -206.02322711 25.44094105 -167.1875 19.6875 C-156.83458897 18.54899899 -146.39961878 18.82229884 -136 19 C-139.19452855 22.43844576 -142.77569426 25.04572762 -146.625 27.6875 C-152.84854831 32.04236521 -158.44327523 36.81700185 -164 42 C-165.22565838 43.04579237 -166.45474363 44.08758404 -167.6875 45.125 C-178.00564225 54.14288855 -187.74766607 64.05760137 -196 75 C-196.48678223 75.64275879 -196.97356445 76.28551758 -197.47509766 76.94775391 C-216.79450985 102.60717375 -233.03746702 131.84779051 -238 164 C-238.18433594 164.92167969 -238.36867187 165.84335938 -238.55859375 166.79296875 C-238.90258282 169.60008944 -238.95039075 171.33052009 -238 174 C-234.73131127 177.32316688 -230.96130518 179.58173196 -227 182 C-225.38962643 183.17906908 -223.78515447 184.36625289 -222.1875 185.5625 C-211.75580553 192.84626741 -200.97824254 198.34194293 -188 197 C-183.46302435 195.39627051 -180.2987458 192.42092157 -177 189 C-176.34 189 -175.68 189 -175 189 C-174.62294922 188.22076172 -174.62294922 188.22076172 -174.23828125 187.42578125 C-173.27888 185.54632328 -172.26532817 183.69445734 -171.23046875 181.85546875 C-160.64513137 163.00568496 -156.3682823 142.11627044 -152.5 121 C-149.91552889 107.73002555 -145.08041392 95.04361504 -139 83 C-138.70367676 82.4009082 -138.40735352 81.80181641 -138.10205078 81.18457031 C-133.56940333 72.06288166 -128.44162966 63.93700797 -122 56 C-121.36771484 55.20746826 -121.36771484 55.20746826 -120.72265625 54.39892578 C-95.13707785 22.42644298 -59.06039888 5.45141362 -18.84375 0.33984375 C-12.55372654 -0.21628637 -6.31021371 -0.16111184 0 0 Z " fill="#CAA12E" transform="translate(440,82)"/>
<path d="M0 0 C-3.08154328 3.16335416 -6.19566223 6.04887591 -9.6875 8.75 C-14.12189268 12.25152785 -18.34281153 15.92206171 -22.51171875 19.734375 C-24.12248184 21.20100388 -25.74928985 22.65028091 -27.39453125 24.078125 C-57.84964368 50.64639756 -81.00804622 86.90124547 -90.3125 126.25 C-90.56749268 127.32725342 -90.82248535 128.40450684 -91.08520508 129.5144043 C-96.16351787 152.14417002 -97.18496807 181.41069611 -91 204 C-90.80132324 204.72848145 -90.60264648 205.45696289 -90.39794922 206.20751953 C-87.21246596 217.4294879 -82.65004321 227.8122391 -77 238 C-76.45730469 238.98484375 -75.91460937 239.9696875 -75.35546875 240.984375 C-70.97807985 248.35457723 -65.36508812 254.40467612 -59.42529297 260.5234375 C-58.18294636 261.81047284 -56.96609008 263.12201703 -55.75390625 264.4375 C-29.21457205 292.53206929 12.29675164 306.07120497 49 314 C46.03215965 316.96784035 42.57243514 316.72349762 38.56640625 317.1015625 C37.71768448 317.18524078 36.86896271 317.26891907 35.99452209 317.35513306 C26.97703257 318.18485461 17.98859039 318.39533014 8.9375 318.375 C7.67847366 318.37518127 7.67847366 318.37518127 6.39401245 318.37536621 C-8.38124914 318.34530357 -22.51534858 317.08796053 -37 314 C-38.16644043 313.75975098 -38.16644043 313.75975098 -39.35644531 313.51464844 C-58.85159272 309.40627509 -78.36880228 302.25681149 -94.28515625 290.07421875 C-98.40613403 286.92567314 -102.6861021 284.01537886 -106.96875 281.09375 C-108.72433308 279.88113076 -110.46414637 278.64348177 -112.15625 277.34375 C-124.50567535 268.13068665 -141.95988913 263.59682941 -157.1875 263.625 C-158.10297607 263.62661133 -159.01845215 263.62822266 -159.96166992 263.62988281 C-169.61200389 263.80273979 -178.06387289 265.84502531 -186.6875 270.3125 C-188.3271875 271.1478125 -188.3271875 271.1478125 -190 272 C-193.56691552 270.81102816 -193.72287752 270.20961956 -195.42578125 267.01171875 C-195.8854126 266.16996094 -196.34504395 265.32820313 -196.81860352 264.4609375 C-197.55808228 263.08808594 -197.55808228 263.08808594 -198.3125 261.6875 C-211.68639766 237.61076868 -231.13256041 206.46243177 -257.8671875 195.86328125 C-264.87221526 193.93296811 -273.14955127 193.61309817 -279.75 196.9375 C-280.8225 197.618125 -281.895 198.29875 -283 199 C-283.66 199.33 -284.32 199.66 -285 200 C-284.03813458 188.07286874 -281.46232867 178.8468688 -272.375 170.625 C-266.05726618 166.30234002 -260.5644494 166.20640821 -253 167 C-241.86252816 169.92642755 -232.4138296 177.31267864 -223.6875 184.5625 C-213.54929164 192.63902047 -201.0808669 198.35255423 -188 197 C-183.46302435 195.39627051 -180.2987458 192.42092157 -177 189 C-176.34 189 -175.68 189 -175 189 C-174.74863281 188.48050781 -174.49726563 187.96101562 -174.23828125 187.42578125 C-173.27888 185.54632328 -172.26532817 183.69445734 -171.23046875 181.85546875 C-160.64513137 163.00568496 -156.3682823 142.11627044 -152.5 121 C-149.91552889 107.73002555 -145.08041392 95.04361504 -139 83 C-138.70367676 82.4009082 -138.40735352 81.80181641 -138.10205078 81.18457031 C-133.56940333 72.06288166 -128.44162966 63.93700797 -122 56 C-121.57847656 55.47164551 -121.15695312 54.94329102 -120.72265625 54.39892578 C-95.13707785 22.42644298 -59.06039888 5.45141362 -18.84375 0.33984375 C-12.55372654 -0.21628637 -6.31021371 -0.16111184 0 0 Z " fill="#B1B2B2" transform="translate(440,82)"/>
</svg>
